<svg version="1.1" id="logo" xmlns="http://www.w3.org/2000/svg" xmlns:xlink="http://www.w3.org/1999/xlink" x="0px" y="0px" viewBox="0 0 7 50" style="enable-background:new 0 0 7 50;" xml:space="preserve">

	<style type="text/css">
		.st0 {
			fill: #fff;
			stroke: #000000;
			stroke-width: 2;
			stroke-miterlimit: 10;
		}

		.st0 {
			stroke-dasharray: 800;
			stroke-dashoffset: 0;
			-webkit-animation: dash 5s linear forwards;
			-o-animation: dash 5s linear forwards;
			-moz-animation: dash 5s linear forwards;
			animation: dash 5s linear forwards;
		}

		#logo:hover .st0 {
			fill: #000;
			transition: 0.8s;
		}

		#logo {
			cursor:pointer;
		}

		#logo.clickit .st0 {
			fill:yellow;
		}

		@-webkit-keyframes dash {
			from {
				stroke-dashoffset: 800;
			}
			to {
				stroke-dashoffset: 0;
			}
		}

	</style>

	<script type="text/javascript">

		var clicker = document.querySelector('#logo');

		clicker.addEventListener('click', function () {

				this.classList.toggle('clickit');

		});
	</script>

	<g>
		<path
			id="p1"
			class="st0"
			d="M24.7,1.9H7v46.9h5.8V32h11.8c4,0.1,7.9-1.4,10.8-4.2c2.8-2.8,4.4-6.7,4.2-10.8c0.2-4.1-1.3-8-4.2-10.9
		C32.7,3.3,28.7,1.7,24.7,1.9z M30.9,24.3c-1.8,1.7-4.4,2.6-7.8,2.6H12.8V7.1l10.3,0c3.4,0,6,0.9,7.8,2.6c1.8,1.7,2.7,4.3,2.7,7.4
		C33.7,20.1,32.8,22.6,30.9,24.3z"/>

		<polygon id="t1" class="st0" points="46.3,7.2 61.4,7.2 61.4,48.7 67.2,48.7 67.2,7.2 82.3,7.2 82.3,1.9 46.3,1.9 	"/>
		<polygon id="t2" class="st0" points="88.4,7.2 103.5,7.2 103.5,48.7 109.4,48.7 109.4,7.2 124.4,7.2 124.4,1.9 88.4,1.9 	"/>

		<path
			id="p2"
			class="st0"
			d="M162,6.1c-2.9-2.9-6.8-4.4-10.8-4.2h-17.7v46.9h5.8V32h11.8c4,0.1,7.9-1.4,10.8-4.2c2.8-2.8,4.4-6.7,4.2-10.8
		C166.3,13,164.8,9.1,162,6.1z M157.4,24.3c-1.8,1.7-4.4,2.6-7.8,2.6h-10.3V7.1l10.3,0c3.4,0,6,0.9,7.8,2.6c1.8,1.7,2.7,4.3,2.7,7.4
		C160.2,20.1,159.3,22.6,157.4,24.3z"/>
	</g>
</svg>
